<svg xmlns="http://www.w3.org/2000/svg" width="36" height="36" viewBox="0 0 36 36">
  <g>
    <path fill="rgb(60,239,0)" fill-rule="evenodd" d="M13.87490845 12.00009155h-11.25C1.17745972 12.00009155 0 10.82263184 0 9.37490845v-6.75C0 1.17745972 1.17745972 0 2.62490845 0h11.25c1.44772339 0 2.6251831 1.17745972 2.6251831 2.62490845v6.75c0 1.44772339-1.17745971 2.6251831-2.6251831 2.6251831zM2.62490845 2.25C2.41809082 2.25 2.25 2.41809082 2.25 2.62490845v6.75c0 .20709228.16809082.3751831.37490845.3751831h11.25c.20709228 0 .3751831-.16809082.3751831-.3751831v-6.75c0-.20681763-.16809082-.37490845-.3751831-.37490845h-11.25z"/>
    <path fill="rgb(60,239,0)" fill-rule="evenodd" d="M13.87490845 36h-11.25C1.17745972 36 0 34.82254028 0 33.37509155v-15.75c0-1.44772339 1.17745972-2.6251831 2.62490845-2.6251831h11.25c1.44772339 0 2.6251831 1.17745971 2.6251831 2.6251831v15.75C16.50009155 34.82254028 15.32263184 36 13.87490845 36zm-11.25-18.75009155c-.20681763 0-.37490845.16809082-.37490845.3751831v15.75c0 .20681763.16809082.37490845.37490845.37490845h11.25c.20709228 0 .3751831-.16809082.3751831-.37490845v-15.75c0-.20709228-.16809082-.3751831-.3751831-.3751831h-11.25z"/>
    <path fill="rgb(60,239,0)" fill-rule="evenodd" d="M33.37509155 36h-11.25c-1.44772339 0-2.6251831-1.17745972-2.6251831-2.62490845v-6.75c0-1.44772339 1.17745971-2.6251831 2.6251831-2.6251831h11.25C34.82254028 23.99990845 36 25.17736816 36 26.62509155v6.75C36 34.82254028 34.82254028 36 33.37509155 36zm-11.25-9.75009155c-.20709228 0-.3751831.16809082-.3751831.3751831v6.75c0 .20681763.16809082.37490845.3751831.37490845h11.25c.20681763 0 .37490845-.16809082.37490845-.37490845v-6.75c0-.20709228-.16809082-.3751831-.37490845-.3751831h-11.25z"/>
    <path fill="rgb(60,239,0)" fill-rule="evenodd" d="M33.37509155 21.00009155h-11.25c-1.44772339 0-2.6251831-1.17745971-2.6251831-2.6251831v-15.75C19.49990845 1.17745972 20.67736816 0 22.12509155 0h11.25C34.82254028 0 36 1.17745972 36 2.62490845v15.75c0 1.44772339-1.17745972 2.6251831-2.62490845 2.6251831zM22.12509155 2.25c-.20709228 0-.3751831.16809082-.3751831.37490845v15.75c0 .20709228.16809082.3751831.3751831.3751831h11.25c.20681763 0 .37490845-.16809082.37490845-.3751831v-15.75C33.75 2.41809082 33.58190918 2.25 33.37509155 2.25h-11.25z"/>
  </g>
</svg>
