<svg xmlns="http://www.w3.org/2000/svg" xmlns:xlink="http://www.w3.org/1999/xlink" width="36" height="36" viewBox="0 0 36 36">
  <defs>
    <rect id="rect-1" width="36" height="36" x="0" y="0"/>
    <mask id="mask-2" maskContentUnits="userSpaceOnUse" maskUnits="userSpaceOnUse">
      <rect width="36" height="36" x="36" y="36" fill="black"/>
      <use fill="white" xlink:href="#rect-1"/>
    </mask>
  </defs>
  <g>
    <use fill="none" xlink:href="#rect-1"/>
    <g mask="url(#mask-2)">
      <path fill="rgb(212,220,223)" fill-rule="evenodd" d="M33.7490158 16.87390137c0-.62097168.5039673-1.12493897 1.12493134-1.12493897.62095642 0 1.12492371.50396729 1.12492371 1.12493897v13.4991455c0 .46124268-.28122711.87298584-.70420075 1.04620362l-11.22904968 4.49072265h-.00225067l-.02024841.0090332c-.26773071.1079712-.5669632.1079712-.83469391 0l-.02025604-.0090332h-.00224305L12.37535095 31.5857544 1.54452896 35.91674805c-.1349907.05395507-.2767334.08099365-.41847229.08099365-.22273636 0-.44097519-.06524658-.62996292-.19348145-.30823135-.20928955-.49496841-.5579834-.49496841-.93145752V14.62408447c0-.46124267.28123092-.87298584.70645523-1.04394531L11.93663025 9.0871582h.00225067l.02024841-.0067749c.26773072-.1079712.5669632-.1079712.83469773 0l.01799774.0067749h.00225067l6.7338295 2.6953125c.57821274.2317505.85944366.88647461.62770843 1.46240235-.23173523.57824707-.89319229.85723877-1.46240997.62774658l-5.21292114-2.08563233v17.82336426l8.99943542 3.59979248V21.37365723c0-.62097168.50396729-1.12493897 1.12493134-1.12493897.62095642 0 1.12493133.50396729 1.12493133 1.12493897v11.83874511l8.99943543-3.59979248v-12.7387085zM2.2509842 33.21020507l8.99943542-3.59979247V11.78479004l-8.99943543 3.59979248v17.82562256z"/>
      <path fill="rgb(212,220,223)" fill-rule="evenodd" d="M24.74958038 7.87451172c0-1.86065674 1.51415253-3.3748169 3.37478638-3.3748169 1.86063385 0 3.374794 1.51416016 3.374794 3.3748169 0 1.8605957-1.51416015 3.37475586-3.374794 3.37475586-1.86063385 0-3.37478638-1.51416016-3.37478638-3.37475586zm2.24985504 0c0 .62097168.50396729 1.12493896 1.12493134 1.12493896.62095642 0 1.12493134-.50396728 1.12493134-1.12493896 0-.62097168-.50397492-1.12493897-1.12493134-1.12493897-.62096405 0-1.12493134.50396729-1.12493134 1.12493897z"/>
      <path fill="rgb(212,220,223)" fill-rule="evenodd" d="M20.24985886 7.87451172C20.24985886 3.5322876 23.782135 0 28.12436676 0s7.87450409 3.5322876 7.87450409 7.87451172c0 4.04077148-6.31760407 11.1975708-7.03755951 12.00073242-.21373749.23626709-.51746368.37347412-.83694458.37347412-.3194809 0-.6232071-.13720703-.83694458-.37347412-.71995544-.80316162-7.03756332-7.95996094-7.03756332-12.00073242zm2.24985885 0c0 2.1463623 3.1678009 6.61907959 5.62464905 9.5326538 2.45684814-2.91357421 5.62464905-7.3885498 5.62464905-9.5326538 0-3.10028076-2.5243454-5.62463379-5.62464905-5.62463379-3.10030365 0-5.62464905 2.52435303-5.62464905 5.62463379z"/>
    </g>
  </g>
</svg>
