<?xml version="1.0" encoding="UTF-8" standalone="no"?>
<svg
   xmlns:dc="http://purl.org/dc/elements/1.1/"
   xmlns:cc="http://creativecommons.org/ns#"
   xmlns:rdf="http://www.w3.org/1999/02/22-rdf-syntax-ns#"
   xmlns:svg="http://www.w3.org/2000/svg"
   xmlns="http://www.w3.org/2000/svg"
   xml:space="preserve"
   style="enable-background:new 0 0 512 512;"
   viewBox="0 0 512 512"
   y="0px"
   x="0px"
   id="Capa_1"
   version="1.1"><metadata
   id="metadata49"><rdf:RDF><cc:Work
       rdf:about=""><dc:format>image/svg+xml</dc:format><dc:type
         rdf:resource="http://purl.org/dc/dcmitype/StillImage" /><dc:title></dc:title></cc:Work></rdf:RDF></metadata><defs
   id="defs47" />
<g
   id="g6">
	<g
   id="g4">
		<path
   style="fill:#ffffff;fill-opacity:1"
   id="path2"
   d="M 400,188 H 187.963 v -82.23 c 0,-36.266 30.505,-65.77 68,-65.77 37.495,0 68,29.504 68,65.77 l 0,88.24958 40,-1.14987 0,-87.09971 C 363.963,47.448 315.514,0 255.963,0 c -59.551,0 -108,47.448 -108,105.77 V 188 H 112 c -33.084,0 -60,26.916 -60,60 v 204 c 0,33.084 26.916,60 60,60 h 288 c 33.084,0 60,-26.916 60,-60 V 248 c 0,-33.084 -26.916,-60 -60,-60 z m 20,264 c 0,11.028 -8.972,20 -20,20 H 112 c -11.028,0 -20,-8.972 -20,-20 V 248 c 0,-11.028 8.972,-20 20,-20 h 288 c 11.028,0 20,8.972 20,20 z" />
	</g>
</g>
<g
   id="g12">
	<g
   id="g10">
		<path
   style="fill:#ffffff"
   id="path8"
   d="M256,286c-20.435,0-37,16.565-37,37c0,13.048,6.76,24.51,16.963,31.098V398c0,11.045,8.954,20,20,20    c11.045,0,20-8.955,20-20v-43.855C286.207,347.565,293,336.08,293,323C293,302.565,276.435,286,256,286z" />
	</g>
</g>
<g
   id="g14">
</g>
<g
   id="g16">
</g>
<g
   id="g18">
</g>
<g
   id="g20">
</g>
<g
   id="g22">
</g>
<g
   id="g24">
</g>
<g
   id="g26">
</g>
<g
   id="g28">
</g>
<g
   id="g30">
</g>
<g
   id="g32">
</g>
<g
   id="g34">
</g>
<g
   id="g36">
</g>
<g
   id="g38">
</g>
<g
   id="g40">
</g>
<g
   id="g42">
</g>
</svg>