<svg xmlns="http://www.w3.org/2000/svg" width="19.096" height="36" viewBox="0 0 19.096 36">
  <path fill="rgb(212,220,223)" fill-rule="evenodd" d="M1.91990662 35.56478882c-.31084443.42623901-.89178849.5602417-1.36035157.31027222-.46771621-.24938965-.6780548-.80407715-.49232864-1.29840088L5.89776993 19.0548706h-4.8367653c-.32647323 0-.63476943-.14941407-.83584594-.4052124-.20100403-.2557068-.27243805-.58929444-.19357681-.90429688L4.27516556.79989624C4.39285278.32989502 4.81742477 0 5.30465698 0h12.73075104c.38163757 0 .73392487.20376587.9223404.5336914.18856048.32989503.18431854.7350464-.01110078 1.06094361l-5.40929412 9.022583h4.4980545c.39868927 0 .76377106.22235108.9449768.57543946.18119813.35321045.14795685.77752686-.08614349 1.0984497L1.91990662 35.56478883zm6.37810516-18.16592407c.198246.28399658.24400711.6465454.12228775.97033691l-3.63236618 9.66973877 11.16790771-15.3123169h-4.28573608c-.38163757 0-.73392868-.20376586-.92241287-.53366088-.18855667-.32992554-.18431473-.7350769.01110458-1.06097412l5.40929413-9.02258301H6.13378525L2.41845703 16.9454956h5.0079956c.34769059 0 .67331315.16937255.87155915.45336914z"/>
</svg>
