<svg xmlns="http://www.w3.org/2000/svg" xmlns:xlink="http://www.w3.org/1999/xlink" width="36" height="36" viewBox="0 0 36 36">
  <defs>
    <rect id="rect-1" width="36" height="36" x="0" y="0"/>
    <mask id="mask-2" maskContentUnits="userSpaceOnUse" maskUnits="userSpaceOnUse">
      <rect width="36" height="36" x="0" y="0" fill="black"/>
      <use fill="white" xlink:href="#rect-1"/>
    </mask>
  </defs>
  <g>
    <use fill="none" xlink:href="#rect-1"/>
    <g mask="url(#mask-2)">
      <path fill="rgb(212,220,223)" fill-rule="evenodd" d="M11.59881592 23.27404785h.00164795l.00411987-.00030517H30.7265625c.47076416 0 .88467407-.3123169 1.01403809-.76495362l4.21875-14.765625c.09091186-.31829834.02719116-.66052246-.17193604-.92474365-.19940185-.2642212-.51113892-.41967773-.84210205-.41967773H9.16644287l-.75393677-3.3928833c-.10739135-.48254395-.53530883-.8258667-1.0296936-.8258667h-6.328125C.47213745 2.17999268 0 2.65216064 0 3.23468018c0 .58258056.47213745 1.0546875 1.0546875 1.0546875h5.48217773c.1334839.60125732 3.60791016 16.23638916 3.80786133 17.13592529C9.22384644 21.91253662 8.4375 23.03015137 8.4375 24.32843017c0 1.74462891 1.4194336 3.1640625 3.1640625 3.1640625h19.125c.58255005 0 1.0546875-.47210693 1.0546875-1.0546875 0-.58258056-.47213745-1.0546875-1.0546875-1.0546875h-19.125c-.58145142 0-1.0546875-.47320556-1.0546875-1.0546875 0-.58062744.47158813-1.05303955 1.05194092-1.05438232zM33.54702759 8.50811768l-3.6161499 12.65625H12.44750977l-2.8125-12.65625h23.91201782z"/>
      <path fill="rgb(212,220,223)" fill-rule="evenodd" d="M10.546875 30.65655518c0 1.7446289 1.4194336 3.1640625 3.1640625 3.1640625S16.875 32.40118408 16.875 30.65655518c0-1.74462891-1.4194336-3.1640625-3.1640625-3.1640625s-3.1640625 1.41943359-3.1640625 3.1640625zm3.1640625-1.0546875c.58145142 0 1.0546875.4732666 1.0546875 1.0546875 0 .58148193-.47323608 1.0546875-1.0546875 1.0546875s-1.0546875-.47320557-1.0546875-1.0546875c0-.5814209.47323608-1.0546875 1.0546875-1.0546875z"/>
      <path fill="rgb(212,220,223)" fill-rule="evenodd" d="M25.453125 30.65655518c0 1.7446289 1.4194336 3.1640625 3.1640625 3.1640625s3.1640625-1.4194336 3.1640625-3.1640625c0-1.74462891-1.4194336-3.1640625-3.1640625-3.1640625s-3.1640625 1.41943359-3.1640625 3.1640625zm3.1640625-1.0546875c.58145142 0 1.0546875.4732666 1.0546875 1.0546875 0 .58148193-.47323608 1.0546875-1.0546875 1.0546875S27.5625 31.2380371 27.5625 30.65655518c0-.5814209.47323608-1.0546875 1.0546875-1.0546875z"/>
    </g>
  </g>
</svg>
