<svg xmlns="http://www.w3.org/2000/svg" xmlns:xlink="http://www.w3.org/1999/xlink" width="36" height="36" viewBox="0 0 36 36">
  <defs>
    <rect id="rect-1" width="36" height="36" x="0" y="0"/>
    <mask id="mask-2" maskContentUnits="userSpaceOnUse" maskUnits="userSpaceOnUse">
      <rect width="36" height="36" x="36" y="36" fill="black"/>
      <use fill="white" xlink:href="#rect-1"/>
    </mask>
  </defs>
  <g>
    <use fill="none" xlink:href="#rect-1"/>
    <g mask="url(#mask-2)">
      <path fill="rgb(212,220,223)" fill-rule="evenodd" d="M14.69305038 21.00958252h6.617836c.55379868 0 1.00271225.44891357 1.00271225 1.00268555v12.98504638C22.31359863 35.55108643 21.86468506 36 21.31088638 36h-6.617836c-.55379867 0-1.00270843-.44891357-1.00270843-1.00268555V22.01226807c0-.55377198.44890976-1.00268555 1.00270843-1.00268555zm1.00270844 12.98498535h4.61241913V23.01495361h-4.61241913v10.97961426z"/>
      <path fill="rgb(212,220,223)" fill-rule="evenodd" d="M27.77835083 13.13824463h6.66802216c.55380249 0 1.00270843.44903564 1.00270843 1.00268555v20.85632324C35.44908142 35.55108642 35.00017548 36 34.446373 36h-6.66802216c-.55379486 0-1.00270843-.44891357-1.00270843-1.00274658V14.14093018c0-.55377198.44891357-1.00268555 1.00270843-1.00268555zm1.00270844 20.85632324h4.66260528V15.14367676h-4.66260528v18.85089111z"/>
      <path fill="rgb(212,220,223)" fill-rule="evenodd" d="M1.55755997 25.87261963h6.66802597c.55379486 0 1.00270843.44903564 1.00270843 1.00268555v8.12194824C9.22829437 35.55108642 8.7793808 36 8.22558594 36H1.55755997c-.55379868 0-1.00270844-.44891357-1.00270844-1.00274658v-8.12194824c0-.55377198.44890976-1.00268555 1.00270844-1.00268555zm1.00270843 8.12194824h4.6626091v-6.11651611H2.5602684v6.11651611z"/>
      <path fill="rgb(212,220,223)" fill-rule="evenodd" d="M35.54936185 1.00558713c-.15248382-.21015706-.39238914-.33932208-.65177476-.3509335l-9.1246548-.65177477c-.55379744-.0415516-1.03639098.37377249-1.07794258.92747396-.0415516.55379744.37367652 1.03639097.92747396 1.07794257l6.45796325.43854692-11.8725303 9.28779042L11.13343 4.61539446c-.38749507-.30688688-.94071673-.2855833-1.30354954.05009223l-9.32511968 8.923998c-.39641955.37607557-.41868276 1.00040517-.05009223 1.40382995.1788734.23213238.45927474.36302472.75205519.3509335.26447162-.00374253.51675605-.11189184.701867-.30084127l8.67344087-8.32250738 8.9741862 7.06905008c.36628743.29326026.8870739.29326026 1.25336133 0l12.83483852-9.98754625-.50159404 6.22755819c-.00249501.5444891.41062194 1.00098094.95261604 1.0528005h.05009223c.51685201.00259097.95098467-.38816681 1.00270826-.90242785l.65177477-8.47288004c.0367535-.26092102-.05690554-.52328147-.25065308-.701867z"/>
    </g>
  </g>
</svg>
